<?xml version="1.0" encoding="utf-8"?>
<!-- Generator: Adobe Illustrator 26.3.1, SVG Export Plug-In . SVG Version: 6.00 Build 0)  -->
<svg version="1.1" id="Layer_1" xmlns="http://www.w3.org/2000/svg" xmlns:xlink="http://www.w3.org/1999/xlink" x="0px" y="0px"
	 viewBox="0 0 16 16" style="enable-background:new 0 0 16 16;" xml:space="preserve">
<style type="text/css">
	.st0{display:none;fill:#FFFFFF;}
	.st1{fill:none;stroke:#FFFFFF;stroke-width:2;stroke-miterlimit:10;}
</style>
<path id="InnerBlob" class="st0" d="M10.9,13H5.1C3.9,13,3,12.1,3,10.9V5.1C3,3.9,3.9,3,5.1,3h5.9C12.1,3,13,3.9,13,5.1v5.9
	C13,12.1,12.1,13,10.9,13z"/>
<path id="OuterRim" class="st1" d="M12,15H4c-1.7,0-3-1.3-3-3V4c0-1.7,1.3-3,3-3h8c1.7,0,3,1.3,3,3v8C15,13.7,13.7,15,12,15z"/>
</svg>
