<?xml version="1.0" encoding="utf-8"?>
<!-- Generator: Adobe Illustrator 26.3.1, SVG Export Plug-In . SVG Version: 6.00 Build 0)  -->
<svg version="1.1" id="Layer_1" xmlns="http://www.w3.org/2000/svg" xmlns:xlink="http://www.w3.org/1999/xlink" x="0px" y="0px"
	 viewBox="0 0 16 16" style="enable-background:new 0 0 16 16;" xml:space="preserve">
<style type="text/css">
	.st0{fill:#FFFFFF;}
	.st1{display:none;fill:none;stroke:#000000;stroke-width:1.5;stroke-miterlimit:10;}
</style>
<path id="InnerBlob" class="st0" d="M10.9,13H5.1C3.9,13,3,12.1,3,10.9V5.1C3,3.9,3.9,3,5.1,3h5.9C12.1,3,13,3.9,13,5.1v5.9
	C13,12.1,12.1,13,10.9,13z"/>
<path id="OuterRim" class="st1" d="M12.2,15.2H3.8c-1.7,0-3-1.3-3-3V3.8c0-1.7,1.3-3,3-3h8.5c1.7,0,3,1.3,3,3v8.5
	C15.2,13.9,13.9,15.2,12.2,15.2z"/>
</svg>
